Coordinates
version=1
nRows=4
nColumns=63
inDegrees=yes

Units are S.I. units (second, meters, Newtons, ...)
If the header above contains a line with 'inDegrees', this indicates whether rotational values are in degrees (yes) or radians (no).

endheader
time	pelvis_tilt	pelvis_list	pelvis_rotation	pelvis_tx	pelvis_ty	pelvis_tz	hip_flexion_r	hip_adduction_r	hip_rotation_r	knee_angle_r	knee_angle_r_beta	ankle_angle_r	subtalar_angle_r	mtp_angle_r	hip_flexion_l	hip_adduction_l	hip_rotation_l	knee_angle_l	knee_angle_l_beta	ankle_angle_l	subtalar_angle_l	mtp_angle_l	L5_S1_Flex_Ext	L5_S1_Lat_Bending	L5_S1_axial_rotation	L4_L5_Flex_Ext	L4_L5_Lat_Bending	L4_L5_axial_rotation	L3_L4_Flex_Ext	L3_L4_Lat_Bending	L3_L4_axial_rotation	L2_L3_Flex_Ext	L2_L3_Lat_Bending	L2_L3_axial_rotation	L1_L2_Flex_Ext	L1_L2_Lat_Bending	L1_L2_axial_rotation	L1_T12_Flex_Ext	L1_T12_Lat_Bending	L1_T12_axial_rotation	Abs_r3	Abs_r2	Abs_r1	Abs_t1	Abs_t2	neck_flexion	neck_bending	neck_rotation	arm_flex_r	arm_add_r	arm_rot_r	elbow_flex_r	pro_sup_r	wrist_flex_r	wrist_dev_r	arm_flex_l	arm_add_l	arm_rot_l	elbow_flex_l	pro_sup_l	wrist_flex_l	wrist_dev_l
      0.00000000	     -1.03130685	     -5.68115186	     75.35991677	      0.20963702	      0.97211871	      0.40645069	      1.00730687	      1.54546261	      5.10702361	      7.75009105	      0.13526461	     37.00715204	     17.59584567	      0.00000000	      3.94827372	     -2.17728056	    -12.28935994	     16.17700209	      0.28234195	     32.97485372	    -11.48739409	      0.00000000	      0.02824970	      0.17493527	      2.43104103	      0.05246253	      0.23266390	      2.58298110	      0.04641144	      0.42533761	      2.58298110	      0.03228659	      0.42533761	      2.12716091	      0.02623268	      0.35672800	      1.97522084	      0.01614188	      0.27097473	      1.82328078	      0.20178482	      1.97890272	     13.52072092	      0.00000000	      0.00000000	     22.33105335	     -3.68831277	      5.66060383	     35.62912432	     -4.63723603	     41.77919846	     47.69363543	     64.88936065	      8.49342843	      4.49576118	     36.09231672	     -3.95974822	     27.27395681	     44.70894840	     50.13618809	      6.99530742	     18.19265532
      0.01724138	     -1.24167229	     -5.35526255	     76.04889862	      0.20898164	      0.97248363	      0.40558162	      0.45917797	      1.21128215	      5.03140835	      7.54577546	      0.13169863	     36.73120387	     16.82631309	      0.00000000	      4.14659830	     -1.89503684	    -11.33742797	     17.03081141	      0.29724373	     33.18284782	    -12.09434873	      0.00000000	      0.01263094	      0.14143446	      2.25679450	      0.02345692	      0.18810784	      2.39784416	      0.02075137	      0.34388376	      2.39784416	      0.01443590	      0.34388376	      1.97469519	      0.01172909	      0.28841316	      1.83364553	      0.00721732	      0.21908199	      1.69259587	      0.09022155	      1.59993495	     12.55161397	      0.00000000	      0.00000000	     21.82262121	     -3.45237014	      5.74044349	     36.06546418	     -4.16324851	     39.91737156	     47.62975587	     86.12715442	      5.95865069	     -0.35121648	     35.52061522	     -4.48039473	     26.08892213	     46.54211191	     50.09658076	      7.24848505	     22.66598248
      0.03448276	     -1.38837608	     -5.13691884	     76.83278690	      0.20840766	      0.97273887	      0.40466858	     -0.02361269	      1.00839532	      4.74342686	      7.22865315	      0.12616380	     36.52570502	     16.25335493	      0.00000000	      4.37503053	     -1.76479282	    -10.76953573	     17.79506613	      0.31058249	     33.48043726	    -11.92800956	      0.00000000	      0.00763393	      0.11184268	      2.11170710	      0.01417698	      0.14875076	      2.24368879	      0.01254179	      0.27193429	      2.24368879	      0.00872482	      0.27193429	      1.84774371	      0.00708887	      0.22806959	      1.71576202	      0.00436203	      0.17324431	      1.58378032	      0.05452842	      1.26518673	     11.74468136	      0.00000000	      0.00000000	     21.46533271	     -3.34724068	      5.34324650	     36.52224070	     -3.90084435	     39.72125138	     47.38986554	     87.64116041	      4.14325073	     -0.95294341	     35.37435053	     -4.76928676	     25.88225790	     47.43394809	     49.87113596	      7.29954059	     24.75036835
      0.05172414	     -1.43836331	     -4.98830004	     77.09758257	      0.20830856	      0.97294223	      0.40415048	     -0.30912389	      0.92168322	      4.71309441	      7.03923556	      0.12285784	     36.49685607	     16.08486618	      0.00000000	      4.53393407	     -1.74633366	    -10.61221991	     18.39815771	      0.32110843	     33.62615158	    -12.00960696	      0.00000000	     -0.00206631	      0.10225450	      2.07293578	     -0.00383735	      0.13599848	      2.20249427	     -0.00339475	      0.24862158	      2.20249427	     -0.00236159	      0.24862158	      1.81381881	     -0.00191878	      0.20851737	      1.68426032	     -0.00118069	      0.15839221	      1.55470183	     -0.01475948	      1.15672331	     11.52904692	      0.00000000	      0.00000000	     21.32128304	     -3.39618389	      5.32039452	     37.02711402	     -3.56138350	     39.26831553	     46.84892430	     87.63316161	      3.21477277	     -0.99923180	     35.43564756	     -4.84091532	     25.93110141	     47.71569667	     49.99246412	      7.22993106	     25.00132092
